<svg id="pinterest" xmlns="http://www.w3.org/2000/svg" width="24" height="24" viewBox="0 0 24 24">
  <g fill="none" stroke="currentColor" stroke-linecap="round" stroke-linejoin="round">

    <!-- Outer Square Border -->
    <path stroke-width="2" stroke-dasharray="72" stroke-dashoffset="72" 
          d="M16 3c2.76 0 5 2.24 5 5v8c0 2.76 -2.24 5 -5 5h-8c-2.76 0 -5 -2.24 -5 -5v-8c0 -2.76 2.24 -5 5 -5h4Z">
      <animate fill="freeze" attributeName="stroke-dashoffset" dur="0.6s" values="72;0" />
    </path>

    <!-- Inner S-like Shape ( make Centered with d=M12) & (Adjustable Thickness with stroke-width) -->
    <path stroke-width="1.1" stroke-dasharray="80" stroke-dashoffset="80"
          d="M11 13.5c-.2 1.3-.5 2.5-1.3 3.2c-.25-1.9.35-3.3.65-4.8
             c-.5-.9.05-2.6 1.1-2.2c1.3.5-1.1 3.2.5 3.6
             c1.7.35 2.4-3.1 1.4-4.2c-1.5-1.6-4.4-.05-4.1 2.2
             c.09.55.65.7.22 1.45c-.95-.2-1.24-1.05-1.2-2.1
             c.06-1.75 1.5-3 3-3.15c1.85-.2 3.55.7 3.8 2.5
             c.27 2.02-.85 4.21-2.85 4.05c-.55-.04-.78-.3-1.2-.58z">
      <animate attributeName="stroke-dashoffset" from="80" to="0" dur="2s" fill="freeze"/>
    </path>
  </g>
</svg>
